<?xml version="1.0" encoding="utf-8"?>
<!-- Generator: Adobe Illustrator 19.2.0, SVG Export Plug-In . SVG Version: 6.00 Build 0)  -->
<svg version="1.1" id="XMLID_2_" xmlns="http://www.w3.org/2000/svg" xmlns:xlink="http://www.w3.org/1999/xlink" x="0px" y="0px"
	 viewBox="0 0 334.58 91.6596" enable-background="new 0 0 334.58 91.6596" xml:space="preserve">
<g id="logo-indeed-top">
	<path fill-rule="evenodd" clip-rule="evenodd" fill="#2263f3" d="M332.8513,15.8446c-1.183-1.3649-2.7699-2.051-4.9082-2.051
		c-2.1383,0-3.7725,0.729-4.9118,2.2321c-1.1329,1.4523-1.7251,3.6342-1.7251,6.4987v20.7299
		c-2.6353-2.9117-5.3651-5.0027-8.1357-6.4113c-1.7316-0.8608-3.7754-1.496-6.0483-1.8189
		c-1.3212-0.1812-2.6826-0.2757-4.1785-0.2757c-6.9562,0-12.5906,2.4577-16.9109,7.3666
		c-4.273,4.9118-6.4113,11.7298-6.4113,20.4978c0,4.142,0.5479,8.0047,1.6342,11.5516c1.0956,3.5433,2.6353,6.6333,4.7299,9.2721
		c2.0911,2.6388,4.5924,4.6325,7.4568,6.0919c2.8608,1.405,5.9545,2.1312,9.3194,2.1312c1.5432,0,2.9955-0.131,4.3604-0.4032
		c0.9109-0.1411,1.7716-0.3666,2.6396-0.6424c2.1348-0.7226,4.1348-1.768,5.9538-3.0857c1.8625-1.3656,3.7287-3.1372,5.5906-5.2756
		v1.3657c0,2.5915,0.6359,4.5451,1.8626,5.9537c1.2747,1.3613,2.8645,2.0875,4.7743,2.0875c1.9564,0,3.5433-0.6789,4.7743-1.9965
		c1.2231-1.3649,1.8626-3.3621,1.8626-6.0446V21.7984C334.58,19.2032,333.9849,17.206,332.8513,15.8446z M318.7147,73.028
		c-1.2303,2.636-2.8644,4.5924-4.8617,5.8635c-2.0474,1.274-4.2766,1.9063-6.7307,1.9063h-0.0401
		c-2.4576,0-4.6869-0.6796-6.7343-1.9973c-2.0438-1.3613-3.6779-3.3649-4.861-6.001c-1.1801-2.6832-1.7724-5.9107-1.7724-9.7297
		c0-3.5906,0.545-6.7708,1.6815-9.4541c1.0927-2.7262,2.6797-4.8208,4.6833-6.2731c2.0438-1.5031,4.3196-2.182,6.9083-2.182h0.1346
		c2.4104,0,4.6361,0.7262,6.6834,2.1348c2.0445,1.4086,3.6786,3.4595,4.9089,6.1391c1.2267,2.6825,1.8189,5.9101,1.8189,9.6353
		C320.5336,67.0706,319.9414,70.3919,318.7147,73.028z"/>
	<path fill-rule="evenodd" clip-rule="evenodd" fill="#2263f3" d="M275.3014,73.6194c-0.8607-0.7734-2.0438-1.183-3.4997-1.183
		c-1.3183,0-2.3166,0.3194-3.0427,0.9073c-1.7752,1.6377-3.1838,2.9518-4.2766,3.91c-1.0857,0.9116-2.3159,1.8189-3.6343,2.6797
		c-1.2704,0.8206-2.636,1.4594-3.9973,1.8225c-1.4122,0.4068-2.9082,0.588-4.5924,0.588c-0.3631,0-0.7298,0-1.0455-0.0466
		c-2.0947-0.1346-4.0446-0.7261-5.8163-1.8189c-2.0946-1.2274-3.7287-3.0391-5.0063-5.4066
		c-1.2267-2.4541-1.8591-5.2713-1.9063-8.4515h27.4105c3.6779,0,6.5423-0.5486,8.546-1.5497
		c2.0474-1.0899,3.0463-3.3622,3.0463-6.8625c0-3.819-0.999-7.5471-2.9554-11.225c-1.9564-3.6414-4.8645-6.6405-8.8182-8.9564
		c-3.9135-2.3166-8.5933-3.4566-14.0937-3.4566h-0.4068c-4.0446,0.0436-7.7762,0.7297-11.0911,2.0008
		c-3.4559,1.3649-6.3676,3.3184-8.778,5.8162c-2.313,2.545-4.132,5.5906-5.3593,9.1375c-1.2267,3.5505-1.8655,7.4103-1.8655,11.5451
		c0,8.8217,2.5014,15.7307,7.5034,20.8645c4.7241,4.8681,11.2729,7.4132,19.5905,7.6824c0.454,0.043,0.9517,0.043,1.4558,0.043
		c3.91,0,7.406-0.497,10.4523-1.5396c3.0457-1.0484,5.547-2.3231,7.5506-3.8663c1.9937-1.5898,3.4968-3.2239,4.4922-4.9082
		c1.0018-1.6807,1.5024-3.1802,1.5024-4.4112C276.6663,75.5257,276.2123,74.3928,275.3014,73.6194z M242.5724,47.9341
		c2.2292-2.4104,5.0937-3.5906,8.5932-3.5906h0.0473c3.6342,0,6.5896,1.1802,8.8182,3.5433
		c2.2292,2.3674,3.5469,5.958,3.8633,10.7752h-25.4103C238.9353,53.9351,240.3031,50.3417,242.5724,47.9341z"/>
	<path fill-rule="evenodd" clip-rule="evenodd" fill="#2263f3" d="M215.7105,72.4364c-1.3649,0-2.3631,0.3194-3.0892,0.9073
		c-1.7287,1.6377-3.181,2.9518-4.2738,3.91c-1.092,0.9116-2.2722,1.8189-3.5934,2.6797c-1.3147,0.8206-2.636,1.4594-4.0446,1.8225
		c-1.3649,0.4068-2.9117,0.588-4.5924,0.588c-0.3602,0-0.7233,0-1.0427-0.0466c-2.0938-0.1346-4.0474-0.7261-5.8226-1.8189
		c-2.0409-1.2274-3.7252-3.0391-4.949-5.4066c-1.2775-2.4541-1.9127-5.2713-1.96-8.4515h27.4577
		c3.6371,0,6.5015-0.5486,8.546-1.5497c2.0001-1.0899,3.0019-3.3622,3.0019-6.8625c0-3.819-0.9545-7.5471-2.9117-11.225
		c-1.9528-3.6414-4.9082-6.6405-8.8146-8.9564c-3.9171-2.3166-8.6369-3.4566-14.0901-3.4566h-0.4577
		c-4.0474,0.0436-7.7289,0.7297-11.0911,2.0008c-3.4595,1.3649-6.3676,3.3184-8.7307,5.8162
		c-2.3632,2.545-4.1821,5.5906-5.4059,9.1375c-1.231,3.5505-1.8662,7.4103-1.8662,11.5451c0,8.8217,2.5486,15.7307,7.5478,20.8645
		c4.727,4.8681,11.2292,7.4132,19.5461,7.6824c0.5013,0.043,0.9517,0.043,1.453,0.043c3.9536,0,7.4131-0.497,10.4523-1.5396
		c3.0456-1.0484,5.5505-2.3231,7.5471-3.8663c2.0445-1.5898,3.5003-3.2239,4.5021-4.9082c0.9983-1.6807,1.5024-3.1802,1.5024-4.4112
		c0-1.4086-0.4569-2.5415-1.3212-3.3148C218.3028,72.846,217.1155,72.4364,215.7105,72.4364z M186.4346,47.9341
		c2.2286-2.4104,5.0901-3.5906,8.5933-3.5906h0.0465c3.6343,0,6.5897,1.1802,8.8189,3.5433
		c2.2693,2.3674,3.5433,5.958,3.9064,10.7752h-25.457C182.8476,53.9351,184.2125,50.3417,186.4346,47.9341z"/>
	<path fill-rule="evenodd" clip-rule="evenodd" fill="#2263f3" d="M29.2018,82.3438V48.8894
		c0.9517,0.0873,1.8626,0.1339,2.8172,0.1339c4.5458,0,8.8224-1.2267,12.4567-3.4086v36.7291c0,3.1373-0.7261,5.4531-2.1383,7.0028
		c-1.4057,1.5432-3.2712,2.313-5.5441,2.313c-2.2292,0-4.0009-0.7698-5.4567-2.3596
		C29.9279,87.7532,29.2018,85.4337,29.2018,82.3438L29.2018,82.3438z"/>
	<path fill-rule="evenodd" clip-rule="evenodd" fill="#2263f3" d="M161.2534,15.8446c-1.1837-1.3649-2.8172-2.051-4.8645-2.051
		c-2.1383,0-3.776,0.729-4.9125,2.2321c-1.1766,1.4523-1.728,3.6342-1.728,6.4987v20.7299
		c-2.6353-2.9117-5.3586-5.0027-8.1357-6.4113c-1.768-0.8608-3.7724-1.496-6.0447-1.8189
		c-1.3147-0.1812-2.6797-0.2757-4.1792-0.2757c-6.9555,0-12.6379,2.4577-16.9109,7.3666
		c-4.273,4.9118-6.4113,11.7298-6.4113,20.4978c0,4.142,0.5486,8.0047,1.5905,11.5516c1.0928,3.5433,2.6825,6.6333,4.7771,9.2721
		c2.0882,2.6388,4.5895,4.6325,7.4569,6.0919c2.8644,1.405,5.9508,2.1312,9.3165,2.1312c1.4989,0,2.9547-0.131,4.3604-0.4032
		c0.9109-0.1411,1.7752-0.3666,2.6389-0.6424c2.1347-0.7226,4.1355-1.768,5.9544-3.0857c1.8626-1.3656,3.6844-3.1372,5.5871-5.2756
		v1.3657c0,2.5915,0.6424,4.5451,1.8661,5.9537c1.2274,1.3613,2.8645,2.0875,4.7743,2.0875c1.859,0,3.4996-0.6789,4.7299-1.9965
		c1.2238-1.3649,1.8153-3.3621,1.8153-6.0446V21.7984C162.9341,19.2032,162.3928,17.206,161.2534,15.8446z M147.1597,73.028
		c-1.2267,2.636-2.8644,4.5924-4.9046,5.8635c-2.0037,1.274-4.2766,1.9063-6.687,1.9063h-0.0436
		c-2.4512,0-4.6834-0.6796-6.7278-1.9973c-2.0911-1.3613-3.6808-3.3649-4.8645-6.001c-1.1802-2.6832-1.7717-5.9107-1.7717-9.7297
		c0-3.5906,0.5479-6.7708,1.6371-9.4541c1.1365-2.7262,2.6797-4.8208,4.727-6.2731c2.0008-1.5031,4.3167-2.182,6.8653-2.182h0.1783
		c2.4104,0,4.6361,0.7262,6.6398,2.1348c2.0875,1.4086,3.7252,3.4595,4.9519,6.1391c1.1802,2.6825,1.8189,5.9101,1.8189,9.6353
		C148.9786,67.0706,148.3398,70.3919,147.1597,73.028z"/>
	<path fill-rule="evenodd" clip-rule="evenodd" fill="#2263f3" d="M66.8862,42.3871v1.7315
		c2.4978-3.2747,5.181-5.6386,8.0892-7.1847c2.9547-1.4995,6.3203-2.2765,10.1357-2.2765c3.6851,0,7.0035,0.8206,9.9116,2.414
		c2.911,1.5869,5.0465,3.8634,6.4987,6.818c0.9582,1.7251,1.5461,3.5906,1.8218,5.5914c0.2729,1.9528,0.4068,4.495,0.4068,7.5879
		v26.052c0,2.8172-0.6825,4.9483-1.9564,6.3605c-1.2711,1.4522-2.9553,2.1784-4.9992,2.1784c-2.0881,0-3.7724-0.7262-5.0901-2.225
		c-1.3212-1.4559-1.9535-3.5877-1.9535-6.3139V59.795c0-4.6325-0.6388-8.1794-1.9127-10.6335
		c-1.2711-2.4513-3.8627-3.6815-7.6788-3.6815c-2.5013,0-4.7743,0.7734-6.8216,2.2256c-2.0438,1.5031-3.5906,3.5433-4.5452,6.1829
		c-0.6824,2.091-1.0018,5.9537-1.0018,11.7298v17.5023c0,2.8609-0.676,4.9483-1.9972,6.4077
		c-1.3177,1.405-2.9991,2.1312-5.0901,2.1312c-2.0438,0-3.6844-0.7262-5.0028-2.225c-1.3177-1.4559-1.9564-3.5877-1.9564-6.3139
		V42.6155c0-2.6797,0.5915-4.6797,1.7752-5.9544c1.1365-1.3141,2.7262-2.0037,4.7743-2.0037c1.2267,0,2.3159,0.2729,3.3177,0.8679
		c1.0018,0.5879,1.8153,1.4552,2.4104,2.6352C66.6105,39.3408,66.8862,40.753,66.8862,42.3871z"/>
	<g>
		<path fill-rule="evenodd" clip-rule="evenodd" fill="#2263f3" d="M29.2892,2.1613C38.7468-1.2481,49.5214-1.067,57.6105,5.933
			c1.5031,1.4086,3.2275,3.1802,3.9099,5.2713c0.8171,2.6367-2.8608-0.275-3.3649-0.6344c-2.636-1.7287-5.272-3.181-8.2267-4.1828
			c-15.909-4.909-30.9573,3.9571-40.3204,17.7272c-3.9064,6.0926-6.455,12.5003-8.546,19.5468
			c-0.2256,0.7734-0.4068,1.7752-0.8171,2.4513c-0.4104,0.7799-0.1819-2.0846-0.1819-2.1791
			c0.3165-2.9081,0.908-5.7253,1.6377-8.5424C6.0179,20.3862,15.5657,7.8865,29.2892,2.1613z"/>
		<path fill-rule="evenodd" clip-rule="evenodd" fill="#2263f3" d="M41.6112,39.3881c-5.6823,2.9081-12.6414,0.6388-15.5023-5.0429
			c-2.9117-5.6852-0.6352-12.6379,5.0465-15.5023c5.6816-2.9081,12.6407-0.6388,15.5015,5.0464
			C49.565,29.571,47.2928,36.5236,41.6112,39.3881z"/>
	</g>
</g>
</svg>
